<svg width="50" height="50" viewBox="0 0 50 50" fill="none" xmlns="http://www.w3.org/2000/svg">
<g id="ph:phone-fill">
<path id="Vector" d="M45.2891 34.1949C44.9408 36.8415 43.6411 39.2707 41.6326 41.029C39.6242 42.7873 37.0444 43.7544 34.375 43.7496C18.8672 43.7496 6.25 31.1324 6.25 15.6246C6.24522 12.9553 7.21228 10.3754 8.97058 8.36698C10.7289 6.35853 13.1581 5.0588 15.8047 4.71054C16.4739 4.62883 17.1517 4.76574 17.7367 5.10085C18.3217 5.43596 18.7827 5.95129 19.0508 6.56992L23.1758 15.7789V15.8023C23.381 16.2759 23.4658 16.7929 23.4225 17.3072C23.3792 17.8215 23.2092 18.317 22.9277 18.7496C22.8926 18.8023 22.8555 18.8512 22.8164 18.9L18.75 23.7203C20.2129 26.693 23.3223 29.775 26.334 31.2418L31.0879 27.1969C31.1346 27.1576 31.1835 27.1211 31.2344 27.0875C31.6666 26.7992 32.1639 26.6233 32.6812 26.5755C33.1985 26.5278 33.7196 26.6098 34.1973 26.8141L34.2227 26.8258L43.4238 30.9488C44.0435 31.216 44.5601 31.6765 44.8964 32.2616C45.2326 32.8468 45.3703 33.525 45.2891 34.1949Z" fill="#407BFF"/>
</g>
</svg>
