<svg width="30" height="30" viewBox="0 0 30 30" fill="none" xmlns="http://www.w3.org/2000/svg">
<path d="M16.285 2.50154C17.1972 2.49804 18.1093 2.50721 19.0212 2.52904L19.2637 2.53779C19.5437 2.54779 19.82 2.56029 20.1537 2.57529C21.4837 2.63779 22.3912 2.84779 23.1875 3.15654C24.0125 3.47404 24.7075 3.90404 25.4025 4.59904C26.038 5.22355 26.5298 5.97897 26.8437 6.81279C27.1525 7.60904 27.3625 8.51779 27.425 9.84779C27.44 10.1803 27.4525 10.4578 27.4625 10.7378L27.47 10.9803C27.4922 11.8918 27.5018 12.8035 27.4987 13.7153L27.5 14.6478V16.2853C27.5031 17.1975 27.4935 18.1096 27.4712 19.0215L27.4637 19.264C27.4537 19.544 27.4412 19.8203 27.4262 20.154C27.3637 21.484 27.1512 22.3915 26.8437 23.1878C26.5308 24.0225 26.0389 24.7785 25.4025 25.4028C24.7774 26.0382 24.0216 26.53 23.1875 26.844C22.3912 27.1528 21.4837 27.3628 20.1537 27.4253C19.82 27.4403 19.5437 27.4528 19.2637 27.4628L19.0212 27.4703C18.1093 27.4925 17.1972 27.5021 16.285 27.499L15.3525 27.5003H13.7162C12.8041 27.5034 11.8919 27.4938 10.98 27.4715L10.7375 27.464C10.4408 27.4533 10.1441 27.4408 9.84749 27.4265C8.51749 27.364 7.60999 27.1515 6.81249 26.844C5.97834 26.5307 5.22279 26.0388 4.59874 25.4028C3.96255 24.7781 3.47027 24.0222 3.15624 23.1878C2.84749 22.3915 2.63749 21.484 2.57499 20.154C2.56107 19.8574 2.54857 19.5608 2.53749 19.264L2.53124 19.0215C2.50819 18.1096 2.49778 17.1975 2.49999 16.2853V13.7153C2.4965 12.8035 2.50567 11.8918 2.52749 10.9803L2.53624 10.7378C2.54624 10.4578 2.55874 10.1803 2.57374 9.84779C2.63624 8.51654 2.84624 7.61029 3.15499 6.81279C3.4692 5.97856 3.96244 5.22334 4.59999 4.60029C5.22361 3.96373 5.97869 3.471 6.81249 3.15654C7.60999 2.84779 8.51624 2.63779 9.84749 2.57529L10.7375 2.53779L10.98 2.53154C11.8915 2.5085 12.8032 2.49809 13.715 2.50029L16.285 2.50154ZM15 8.75154C14.1719 8.73983 13.3497 8.89282 12.5812 9.20162C11.8127 9.51043 11.1133 9.96889 10.5235 10.5504C9.93379 11.1318 9.46549 11.8247 9.14585 12.5887C8.82621 13.3528 8.6616 14.1727 8.6616 15.0009C8.6616 15.8291 8.82621 16.6491 9.14585 17.4131C9.46549 18.1771 9.93379 18.87 10.5235 19.4515C11.1133 20.0329 11.8127 20.4914 12.5812 20.8002C13.3497 21.109 14.1719 21.262 15 21.2503C16.6576 21.2503 18.2473 20.5918 19.4194 19.4197C20.5915 18.2476 21.25 16.6579 21.25 15.0003C21.25 13.3427 20.5915 11.753 19.4194 10.5809C18.2473 9.40877 16.6576 8.75154 15 8.75154ZM15 11.2515C15.4981 11.2424 15.9931 11.3325 16.456 11.5168C16.9189 11.7011 17.3404 11.9757 17.696 12.3247C18.0515 12.6737 18.334 13.0901 18.5268 13.5495C18.7196 14.0089 18.819 14.5021 18.8191 15.0003C18.8192 15.4985 18.72 15.9917 18.5273 16.4512C18.3346 16.9106 18.0523 17.3271 17.6969 17.6762C17.3414 18.0253 16.92 18.3001 16.4571 18.4845C15.9943 18.669 15.4994 18.7593 15.0012 18.7503C14.0067 18.7503 13.0528 18.3552 12.3496 17.6519C11.6463 16.9487 11.2512 15.9949 11.2512 15.0003C11.2512 14.0057 11.6463 13.0519 12.3496 12.3486C13.0528 11.6454 14.0067 11.2503 15.0012 11.2503L15 11.2515ZM21.5625 6.87654C21.1592 6.89268 20.7779 7.06423 20.4982 7.35525C20.2186 7.64628 20.0625 8.03421 20.0625 8.43779C20.0625 8.84137 20.2186 9.2293 20.4982 9.52032C20.7779 9.81135 21.1592 9.9829 21.5625 9.99904C21.9769 9.99904 22.3743 9.83442 22.6673 9.54139C22.9604 9.24837 23.125 8.85094 23.125 8.43654C23.125 8.02214 22.9604 7.62471 22.6673 7.33168C22.3743 7.03866 21.9769 6.87404 21.5625 6.87404V6.87654Z" fill="white"/>
</svg>
