<svg width="18" height="18" viewBox="0 0 18 18" fill="none" xmlns="http://www.w3.org/2000/svg">
<path d="M8.68967 1.57657C11.0099 1.57657 11.2847 1.58549 12.201 1.62759C13.0483 1.66649 13.5084 1.80904 13.8146 1.92887C14.2202 2.0876 14.5096 2.2772 14.8137 2.58338C15.1178 2.88958 15.3061 3.18106 15.4637 3.58949C15.5827 3.89781 15.7243 4.36112 15.7629 5.21423C15.8047 6.13688 15.8136 6.41363 15.8136 8.74995C15.8136 11.0863 15.8047 11.3631 15.7629 12.2857C15.7243 13.1388 15.5827 13.6021 15.4637 13.9105C15.3061 14.3189 15.1178 14.6104 14.8137 14.9165C14.5096 15.2227 14.2202 15.4123 13.8146 15.5711C13.5084 15.6909 13.0483 15.8334 12.201 15.8723C11.2849 15.9144 11.0101 15.9234 8.68967 15.9234C6.36925 15.9234 6.09447 15.9144 5.17829 15.8723C4.33106 15.8334 3.87094 15.6909 3.56474 15.5711C3.15913 15.4123 2.86966 15.2227 2.5656 14.9165C2.26154 14.6104 2.07321 14.3189 1.91557 13.9105C1.79657 13.6021 1.655 13.1388 1.61637 12.2857C1.57457 11.3631 1.5657 11.0863 1.5657 8.74995C1.5657 6.41363 1.57457 6.13688 1.61637 5.21423C1.655 4.36112 1.79657 3.89781 1.91557 3.58949C2.07321 3.18106 2.26151 2.88958 2.5656 2.58341C2.86966 2.2772 3.15913 2.0876 3.56474 1.92887C3.87094 1.80904 4.33106 1.66649 5.17829 1.62759C6.09458 1.58549 6.36942 1.57657 8.68967 1.57657ZM8.68967 0C6.32969 0 6.03376 0.0100726 5.10692 0.0526553C4.18201 0.0951338 3.55033 0.243062 2.9976 0.459345C2.42618 0.682956 1.94158 0.982147 1.45846 1.46858C0.975377 1.95505 0.678248 2.44302 0.456213 3.01841C0.241386 3.57497 0.0944781 4.21104 0.0522924 5.14237C0.0100032 6.07565 0 6.37362 0 8.74995C0 11.1263 0.0100032 11.4243 0.0522924 12.3576C0.0944781 13.2889 0.241386 13.925 0.456213 14.4815C0.678248 15.0569 0.975377 15.5449 1.45846 16.0314C1.94158 16.5178 2.42618 16.817 2.9976 17.0406C3.55033 17.2569 4.18201 17.4048 5.10692 17.4473C6.03376 17.4899 6.32969 17.4999 8.68967 17.4999C11.0496 17.4999 11.3455 17.4899 12.2724 17.4473C13.1973 17.4048 13.829 17.2569 14.3817 17.0406C14.9531 16.817 15.4377 16.5178 15.9208 16.0314C16.4039 15.5449 16.7011 15.0569 16.9231 14.4815C17.1379 13.925 17.2848 13.2889 17.327 12.3576C17.3693 11.4243 17.3793 11.1263 17.3793 8.74995C17.3793 6.37362 17.3693 6.07565 17.327 5.14237C17.2848 4.21104 17.1379 3.57497 16.9231 3.01841C16.7011 2.44302 16.4039 1.95505 15.9208 1.46858C15.4377 0.982147 14.9531 0.682956 14.3817 0.459345C13.829 0.243062 13.1973 0.0951338 12.2724 0.0526553C11.3455 0.0100726 11.0496 0 8.68967 0Z" fill="white"/>
<path d="M8.69372 4.26074C6.22925 4.26074 4.23145 6.27241 4.23145 8.75395C4.23145 11.2355 6.22925 13.2472 8.69372 13.2472C11.1581 13.2472 13.156 11.2355 13.156 8.75395C13.156 6.27241 11.1581 4.26074 8.69372 4.26074ZM8.69372 11.6706C7.09397 11.6706 5.79715 10.3648 5.79715 8.75395C5.79715 7.14314 7.09397 5.83731 8.69372 5.83731C10.2934 5.83731 11.5902 7.14314 11.5902 8.75395C11.5902 10.3648 10.2934 11.6706 8.69372 11.6706Z" fill="white"/>
<path d="M14.3746 4.08029C14.3746 4.66016 13.9077 5.13027 13.3318 5.13027C12.7559 5.13027 12.2891 4.66016 12.2891 4.08029C12.2891 3.50039 12.7559 3.03027 13.3318 3.03027C13.9077 3.03027 14.3746 3.50039 14.3746 4.08029Z" fill="white"/>
</svg>
