<svg width="226" height="226" viewBox="0 0 226 226" fill="none" xmlns="http://www.w3.org/2000/svg">
<path fill-rule="evenodd" clip-rule="evenodd" d="M137.234 42.9211C172.687 65.6906 192.382 92.1891 196.323 122.431C202.458 169.5 160.366 192.538 139.037 171.84C117.708 151.137 130.491 124.865 145.935 117.68C161.378 110.5 170.823 113 169.175 103.4C167.527 93.8041 145.558 67.1926 126.254 54.8003C125.57 54.2186 125.133 53.3978 125.034 52.5054C124.934 51.613 125.178 50.7161 125.717 49.9978L130.491 43.7875C132.563 41.0943 134.55 41.1979 137.234 42.9164M43.8863 42.9211C79.3401 65.6906 99.0398 92.1938 102.976 122.431C109.111 169.5 67.0184 192.538 45.6896 171.84C24.3609 151.137 37.144 124.865 52.592 117.68C68.0354 110.5 77.4803 113 75.8324 103.4C74.1845 93.8041 52.2107 67.1926 32.9065 54.8003C32.2231 54.2179 31.7876 53.3968 31.6888 52.5044C31.5899 51.6121 31.8351 50.7156 32.3745 49.9978L37.1487 43.7875C39.2204 41.0943 41.2073 41.1979 43.8863 42.9164" fill="#253559" fill-opacity="0.13"/>
</svg>
