<svg width="1402" height="850" viewBox="0 0 1402 850" fill="none" xmlns="http://www.w3.org/2000/svg">
<path d="M3.98153 847.223C-4.29649 730.78 56.1244 621.648 141.293 563.6C235.647 499.3 350.264 493.719 455.22 520.189C483.199 527.24 510.756 536.433 537.828 547.183C561.408 556.538 585.659 565.93 606.97 581.152C625.125 594.119 644.361 613.464 646.577 639.585C649.062 668.908 628.562 693.734 604.603 699.501C556.491 711.086 513.102 664.922 497.032 616.653C482.443 572.818 483.653 521.908 499.172 478.622C536.12 375.532 637.996 322.978 726.082 298.289C821.301 271.607 922.323 274.248 1016.77 303.894C1064.21 318.78 1110.02 340.491 1152.62 368.78C1174.38 383.242 1195.48 399.324 1215.19 417.298C1235.76 436.058 1255.44 458.467 1264.8 487.342C1273.78 515.057 1272.69 547.818 1254.7 570.452C1240.39 588.451 1218.52 597.245 1197.63 596.747C1148.73 595.576 1115.33 542.287 1107.88 490.879C1098.97 429.605 1118.13 365.118 1140.77 310.347C1160.13 263.535 1185.59 220.161 1215.71 181.658C1275.74 104.951 1354.3 47.2024 1440.65 19.0008C1461.89 12.0625 1483.55 6.98021 1505.44 3.75397C1507.48 3.45501 1507.5 -0.281947 1505.44 0.0170094C1411.5 13.8562 1322.91 62.4242 1252.21 134.685C1216.7 170.97 1185.69 213.211 1160.87 259.86C1134.31 309.799 1112.7 366.675 1105.01 424.86C1097.58 481.076 1107.69 544.604 1149.31 580.616C1182.07 608.955 1233.41 607.659 1260.08 568.944C1274.53 547.955 1276.54 519.579 1270.26 494.429C1262.94 465.094 1245.19 441.439 1225.36 422.044C1185.71 383.28 1139.1 352.761 1091.31 329.555C995.777 283.166 889.438 266.288 786.601 281.597C736.273 289.083 686.454 304.031 639.941 327.549C595.05 350.245 552.168 382.233 521.833 427.313C494.438 468.021 480.227 517.735 484.366 569.355C488.051 615.258 506.412 660.687 540.67 686.385C561.473 701.98 588.825 710.662 612.967 700.66C632.376 692.613 648.435 672.782 649.938 648.429C653.244 594.991 596.346 568.047 561.257 552.913C451.892 505.715 330.456 481.686 216.498 521.722C165.878 539.497 117.961 569.729 80.3209 612.953C44.4963 654.097 17.8791 706.614 6.27257 763.49C0.674642 790.907 -1.22736 819.146 0.771904 847.223C0.944813 849.602 4.18686 849.627 4.01395 847.223H3.98153Z" fill="#262626"/>
</svg>
