<svg width="54" height="54" viewBox="0 0 54 54" fill="none" xmlns="http://www.w3.org/2000/svg">
<g id="ic:outline-connect-without-contact">
<path id="Vector" d="M24.75 31.5H20.25C20.25 26.1294 22.3835 20.9787 26.1811 17.1811C29.9787 13.3835 35.1294 11.25 40.5 11.25V15.75C31.7925 15.75 24.75 22.7925 24.75 31.5ZM40.5 24.75V20.25C34.29 20.25 29.25 25.29 29.25 31.5H33.75C33.75 27.765 36.765 24.75 40.5 24.75ZM15.75 9C15.75 6.5025 13.7475 4.5 11.25 4.5C8.7525 4.5 6.75 6.5025 6.75 9C6.75 11.4975 8.7525 13.5 11.25 13.5C13.7475 13.5 15.75 11.4975 15.75 9ZM25.7625 10.125H21.2625C21.0014 11.6967 20.1909 13.1248 18.9754 14.1549C17.7599 15.185 16.2183 15.7502 14.625 15.75H7.875C6.0075 15.75 4.5 17.2575 4.5 19.125V24.75H18V19.665C20.0847 19.0076 21.931 17.7536 23.3106 16.058C24.6902 14.3625 25.5426 12.2998 25.7625 10.125ZM42.75 38.25C45.2475 38.25 47.25 36.2475 47.25 33.75C47.25 31.2525 45.2475 29.25 42.75 29.25C40.2525 29.25 38.25 31.2525 38.25 33.75C38.25 36.2475 40.2525 38.25 42.75 38.25ZM46.125 40.5H39.375C37.7817 40.5002 36.2401 39.935 35.0246 38.9049C33.8091 37.8748 32.9986 36.4467 32.7375 34.875H28.2375C28.4574 37.0498 29.3098 39.1125 30.6894 40.808C32.069 42.5036 33.9153 43.7576 36 44.415V49.5H49.5V43.875C49.5 42.0075 47.9925 40.5 46.125 40.5Z" fill="black"/>
</g>
</svg>
