<svg width="54" height="54" viewBox="0 0 54 54" fill="none" xmlns="http://www.w3.org/2000/svg">
<g id="dashicons:email-alt">
<path id="Vector" d="M51.3 39.15V14.85C51.3 12.609 49.491 10.8 47.25 10.8H9.42305C7.18205 10.8 5.37305 12.609 5.37305 14.85V39.15C5.37305 41.391 7.18205 43.2001 9.42305 43.2001H47.25C49.491 43.2001 51.3 41.391 51.3 39.15ZM47.7631 14.553C48.654 15.444 48.168 16.362 47.682 16.821L36.72 26.865L47.25 37.827C47.574 38.205 47.79 38.7991 47.412 39.2041C47.061 39.6361 46.251 39.609 45.9 39.339L34.101 29.268L28.323 34.533L22.572 29.268L10.773 39.339C10.422 39.609 9.61205 39.6361 9.26105 39.2041C8.88305 38.7991 9.09905 38.205 9.42305 37.827L19.953 26.865L8.99105 16.821C8.50505 16.362 8.01905 15.444 8.91005 14.553C9.80105 13.662 10.719 14.094 11.475 14.742L28.323 28.35L45.198 14.742C45.954 14.094 46.8721 13.662 47.7631 14.553Z" fill="black"/>
</g>
</svg>
