<svg width="50" height="50" viewBox="0 0 50 50" fill="none" xmlns="http://www.w3.org/2000/svg">
<path d="M25 3.125C16.374 3.125 9.375 9.4248 9.375 17.1875C9.375 29.6875 25 46.875 25 46.875C25 46.875 40.625 29.6875 40.625 17.1875C40.625 9.4248 33.626 3.125 25 3.125ZM25 25C23.7639 25 22.5555 24.6334 21.5277 23.9467C20.4999 23.2599 19.6988 22.2838 19.2258 21.1418C18.7527 19.9997 18.6289 18.7431 18.8701 17.5307C19.1112 16.3183 19.7065 15.2047 20.5806 14.3306C21.4547 13.4565 22.5683 12.8612 23.7807 12.6201C24.9931 12.3789 26.2497 12.5027 27.3918 12.9758C28.5338 13.4488 29.5099 14.2499 30.1967 15.2777C30.8834 16.3055 31.25 17.5139 31.25 18.75C31.2482 20.407 30.5891 21.9957 29.4174 23.1674C28.2457 24.3391 26.657 24.9982 25 25Z" fill="white"/>
</svg>
