<svg width="196" height="81" viewBox="0 0 196 81" fill="none" xmlns="http://www.w3.org/2000/svg">
<path d="M72.5566 66.9255V47.8008H74.8227L87.6177 63.5104H86.4294V47.8008H89.1929V66.9255H86.9269L74.1318 51.2159H75.3201V66.9255H72.5566Z" fill="url(#paint0_linear_1_61)"/>
<path d="M92.4683 66.9255L98.7691 58.8385L98.7415 60.1772L92.7447 52.4454H95.7016L100.289 58.4013H99.156L103.743 52.4454H106.645L100.565 60.2318L100.593 58.8385L106.949 66.9255H103.937L99.1007 60.587L100.179 60.7509L95.4253 66.9255H92.4683Z" fill="url(#paint1_linear_1_61)"/>
<path d="M114.874 67.0894C113.4 67.0894 112.258 66.6978 111.447 65.9146C110.636 65.1314 110.231 64.0112 110.231 62.5541V49.2761H112.884V62.4448C112.884 63.228 113.077 63.8291 113.464 64.248C113.87 64.6669 114.441 64.8764 115.178 64.8764C116.007 64.8764 116.698 64.6487 117.25 64.1934L118.079 66.0785C117.674 66.4246 117.186 66.6796 116.615 66.8435C116.062 67.0075 115.482 67.0894 114.874 67.0894ZM107.744 54.6037V52.4454H117.084V54.6037H107.744Z" fill="url(#paint2_linear_1_61)"/>
<path d="M134.155 67.1442C132.681 67.1442 131.272 66.9257 129.927 66.4885C128.582 66.0332 127.523 65.4503 126.749 64.74L127.772 62.6089C128.508 63.2464 129.448 63.7746 130.59 64.1936C131.733 64.6125 132.921 64.8219 134.155 64.8219C135.279 64.8219 136.191 64.6944 136.891 64.4394C137.591 64.1844 138.107 63.8384 138.439 63.4012C138.77 62.9459 138.936 62.4359 138.936 61.8713C138.936 61.2156 138.715 60.6874 138.273 60.2866C137.849 59.8859 137.287 59.5672 136.587 59.3304C135.905 59.0754 135.15 58.8568 134.321 58.6747C133.492 58.4926 132.654 58.2831 131.806 58.0463C130.977 57.7913 130.213 57.4726 129.513 57.0901C128.831 56.7076 128.278 56.1976 127.854 55.5601C127.431 54.9044 127.219 54.0666 127.219 53.0466C127.219 52.063 127.477 51.1614 127.993 50.3418C128.527 49.504 129.338 48.8391 130.424 48.3474C131.53 47.8374 132.93 47.5824 134.625 47.5824C135.749 47.5824 136.863 47.7281 137.969 48.0195C139.074 48.3109 140.032 48.7299 140.843 49.2763L139.931 51.462C139.102 50.9155 138.227 50.5239 137.306 50.2872C136.384 50.0322 135.491 49.9047 134.625 49.9047C133.538 49.9047 132.644 50.0413 131.944 50.3145C131.244 50.5877 130.728 50.952 130.397 51.4073C130.084 51.8627 129.927 52.3727 129.927 52.9373C129.927 53.6112 130.139 54.1485 130.563 54.5492C131.005 54.9499 131.567 55.2687 132.248 55.5055C132.948 55.7423 133.713 55.9608 134.542 56.1612C135.371 56.3433 136.2 56.5528 137.029 56.7896C137.877 57.0263 138.641 57.336 139.323 57.7185C140.023 58.101 140.585 58.611 141.009 59.2485C141.432 59.8859 141.644 60.7056 141.644 61.7073C141.644 62.6727 141.377 63.5743 140.843 64.4121C140.309 65.2318 139.48 65.8966 138.356 66.4066C137.25 66.8983 135.85 67.1442 134.155 67.1442Z" fill="url(#paint3_linear_1_61)"/>
<path d="M147.45 63.4286L147.506 60.0681L155.934 52.4455H159.14L152.673 58.7294L151.236 59.9315L147.45 63.4286ZM145.295 66.9257V46.6535H147.948V66.9257H145.295ZM156.487 66.9257L150.739 59.8768L152.452 57.7731L159.748 66.9257H156.487Z" fill="url(#paint4_linear_1_61)"/>
<path d="M162.324 66.9257V52.4455H164.977V66.9257H162.324ZM163.65 49.6588C163.134 49.6588 162.701 49.4949 162.351 49.167C162.02 48.8391 161.854 48.4384 161.854 47.9649C161.854 47.4731 162.02 47.0633 162.351 46.7354C162.701 46.4076 163.134 46.2437 163.65 46.2437C164.166 46.2437 164.59 46.4076 164.921 46.7354C165.271 47.0451 165.446 47.4367 165.446 47.9102C165.446 48.402 165.281 48.8209 164.949 49.167C164.617 49.4949 164.185 49.6588 163.65 49.6588Z" fill="url(#paint5_linear_1_61)"/>
<path d="M170.042 66.9257V46.6535H172.695V66.9257H170.042Z" fill="url(#paint6_linear_1_61)"/>
<path d="M177.76 66.9257V46.6535H180.413V66.9257H177.76Z" fill="url(#paint7_linear_1_61)"/>
<path d="M189.679 67.0896C188.463 67.0896 187.303 66.9257 186.197 66.5978C185.11 66.2699 184.254 65.8692 183.627 65.3957L184.733 63.3193C185.359 63.7382 186.133 64.0934 187.054 64.3848C187.975 64.6762 188.915 64.8219 189.873 64.8219C191.107 64.8219 191.992 64.6489 192.526 64.3028C193.079 63.9568 193.355 63.4741 193.355 62.8548C193.355 62.3995 193.189 62.0443 192.857 61.7893C192.526 61.5343 192.084 61.3431 191.531 61.2156C190.997 61.0881 190.398 60.9788 189.735 60.8877C189.071 60.7784 188.408 60.6509 187.745 60.5052C187.082 60.3413 186.474 60.1227 185.921 59.8495C185.368 59.5581 184.926 59.1665 184.595 58.6747C184.263 58.1647 184.097 57.4908 184.097 56.653C184.097 55.7787 184.346 55.0137 184.843 54.358C185.341 53.7023 186.041 53.2014 186.944 52.8553C187.865 52.4911 188.952 52.3089 190.204 52.3089C191.162 52.3089 192.13 52.4273 193.106 52.6641C194.101 52.8827 194.912 53.2014 195.538 53.6203L194.405 55.6967C193.742 55.2596 193.051 54.9591 192.332 54.7951C191.614 54.6312 190.895 54.5492 190.177 54.5492C189.016 54.5492 188.15 54.7405 187.579 55.123C187.008 55.4873 186.722 55.9608 186.722 56.5437C186.722 57.0354 186.888 57.4179 187.22 57.6912C187.57 57.9461 188.012 58.1465 188.546 58.2922C189.099 58.4379 189.707 58.5654 190.37 58.6747C191.034 58.7658 191.697 58.8933 192.36 59.0572C193.023 59.2029 193.622 59.4124 194.156 59.6856C194.709 59.9588 195.151 60.3413 195.483 60.8331C195.833 61.3248 196.008 61.9806 196.008 62.8002C196.008 63.6745 195.75 64.4303 195.234 65.0678C194.718 65.7053 193.99 66.2062 193.051 66.5705C192.111 66.9165 190.987 67.0896 189.679 67.0896Z" fill="url(#paint8_linear_1_61)"/>
<path fill-rule="evenodd" clip-rule="evenodd" d="M47.6128 21.9734L23.9141 22.6231L12.6339 43.2384L25.0523 63.204L48.7511 62.5543L60.0313 41.939L47.6128 21.9734ZM65.6804 41.7841L50.3017 17.0593L20.9539 17.8638L6.98477 43.3932L22.3634 68.1181L51.7113 67.3136L65.6804 41.7841Z" fill="url(#paint9_linear_1_61)"/>
<path d="M64.3894 7.18081L80.3104 6.69363L88.6976 20.0813L81.1639 33.9561L65.2429 34.4433L56.8557 21.0556L64.3894 7.18081Z" fill="url(#paint10_linear_1_61)"/>
<defs>
<linearGradient id="paint0_linear_1_61" x1="113.168" y1="57.3767" x2="72.8677" y2="57.3767" gradientUnits="userSpaceOnUse">
<stop stop-color="#3051D3"/>
<stop offset="0.0864582" stop-color="#6E45B0"/>
<stop offset="0.770649" stop-color="#993C98"/>
</linearGradient>
<linearGradient id="paint1_linear_1_61" x1="113.168" y1="57.3767" x2="72.8677" y2="57.3767" gradientUnits="userSpaceOnUse">
<stop stop-color="#3051D3"/>
<stop offset="0.0864582" stop-color="#6E45B0"/>
<stop offset="0.770649" stop-color="#993C98"/>
</linearGradient>
<linearGradient id="paint2_linear_1_61" x1="113.168" y1="57.3767" x2="72.8677" y2="57.3767" gradientUnits="userSpaceOnUse">
<stop stop-color="#3051D3"/>
<stop offset="0.0864582" stop-color="#6E45B0"/>
<stop offset="0.770649" stop-color="#993C98"/>
</linearGradient>
<linearGradient id="paint3_linear_1_61" x1="106.625" y1="61.0183" x2="135.072" y2="105.137" gradientUnits="userSpaceOnUse">
<stop offset="0.0822913" stop-color="#7F3DA4"/>
<stop offset="0.764583" stop-color="#0045BD"/>
</linearGradient>
<linearGradient id="paint4_linear_1_61" x1="106.625" y1="61.0183" x2="135.072" y2="105.137" gradientUnits="userSpaceOnUse">
<stop offset="0.0822913" stop-color="#7F3DA4"/>
<stop offset="0.764583" stop-color="#0045BD"/>
</linearGradient>
<linearGradient id="paint5_linear_1_61" x1="106.625" y1="61.0183" x2="135.072" y2="105.137" gradientUnits="userSpaceOnUse">
<stop offset="0.0822913" stop-color="#7F3DA4"/>
<stop offset="0.764583" stop-color="#0045BD"/>
</linearGradient>
<linearGradient id="paint6_linear_1_61" x1="106.625" y1="61.0183" x2="135.072" y2="105.137" gradientUnits="userSpaceOnUse">
<stop offset="0.0822913" stop-color="#7F3DA4"/>
<stop offset="0.764583" stop-color="#0045BD"/>
</linearGradient>
<linearGradient id="paint7_linear_1_61" x1="106.625" y1="61.0183" x2="135.072" y2="105.137" gradientUnits="userSpaceOnUse">
<stop offset="0.0822913" stop-color="#7F3DA4"/>
<stop offset="0.764583" stop-color="#0045BD"/>
</linearGradient>
<linearGradient id="paint8_linear_1_61" x1="106.625" y1="61.0183" x2="135.072" y2="105.137" gradientUnits="userSpaceOnUse">
<stop offset="0.0822913" stop-color="#7F3DA4"/>
<stop offset="0.764583" stop-color="#0045BD"/>
</linearGradient>
<linearGradient id="paint9_linear_1_61" x1="7.99503" y1="57.428" x2="74.1296" y2="25.8139" gradientUnits="userSpaceOnUse">
<stop stop-color="#FC2C65"/>
<stop offset="0.820833" stop-color="#7F3DA4"/>
</linearGradient>
<linearGradient id="paint10_linear_1_61" x1="53.4218" y1="14.4626" x2="93.0071" y2="17.8339" gradientUnits="userSpaceOnUse">
<stop stop-color="#A83B92"/>
<stop offset="0.820833" stop-color="#7F3DA4"/>
</linearGradient>
</defs>
</svg>
