<svg width="226" height="226" viewBox="0 0 226 226" fill="none" xmlns="http://www.w3.org/2000/svg">
<path fill-rule="evenodd" clip-rule="evenodd" d="M88.7663 42.9211C53.3125 65.6906 33.6175 92.1891 29.6767 122.431C23.5417 169.5 65.6342 192.538 86.963 171.84C108.292 151.137 95.5086 124.865 80.0652 117.68C64.6219 110.5 55.177 113 56.8249 103.4C58.4728 93.8041 80.4419 67.1926 99.7461 54.8003C100.43 54.2186 100.867 53.3978 100.966 52.5054C101.066 51.613 100.822 50.7161 100.283 49.9978L95.5086 43.7875C93.4369 41.0943 91.45 41.1979 88.7663 42.9164M182.114 42.9211C146.66 65.6906 126.96 92.1938 123.024 122.431C116.889 169.5 158.982 192.538 180.31 171.84C201.639 151.137 188.856 124.865 173.408 117.68C157.965 110.5 148.52 113 150.168 103.4C151.816 93.8041 173.789 67.1926 193.093 54.8003C193.777 54.2179 194.212 53.3968 194.311 52.5044C194.41 51.6121 194.165 50.7156 193.626 49.9978L188.851 43.7875C186.78 41.0943 184.793 41.1979 182.114 42.9164" fill="#253559" fill-opacity="0.13"/>
</svg>
