<svg width="18" height="15" viewBox="0 0 18 15" fill="none" xmlns="http://www.w3.org/2000/svg">
<path fill-rule="evenodd" clip-rule="evenodd" d="M17.3793 1.68339C16.7404 1.9692 16.0528 2.16169 15.3316 2.2486C16.0678 1.80413 16.6332 1.10067 16.8991 0.262481C16.2109 0.674287 15.4469 0.972352 14.6353 1.13392C13.9848 0.436304 13.0574 0 12.0326 0C10.0637 0 8.46721 1.60756 8.46721 3.59018C8.46721 3.87132 8.49908 4.14547 8.5599 4.40854C5.59634 4.25921 2.96935 2.82956 1.21068 0.657372C0.903664 1.18759 0.728145 1.80413 0.728145 2.46209C0.728145 3.70742 1.35665 4.80635 2.31419 5.45031C1.72913 5.43164 1.17998 5.27007 0.6986 5.00117V5.04608C0.6986 6.78605 1.92839 8.2367 3.55846 8.56743C3.25956 8.64909 2.94444 8.69342 2.61947 8.69342C2.3895 8.69342 2.1659 8.67067 1.94809 8.62867C2.40166 10.0548 3.71892 11.0931 5.2789 11.1223C4.05896 12.0847 2.52157 12.6592 0.850949 12.6592C0.562472 12.6592 0.27863 12.6423 0 12.6085C1.57794 13.6269 3.45188 14.2219 5.46543 14.2219C12.0234 14.2219 15.6096 8.75116 15.6096 4.00723C15.6096 3.85149 15.6067 3.69634 15.5992 3.54293C16.2967 3.03547 16.9014 2.40317 17.3793 1.68339Z" fill="white"/>
</svg>
